<?xml version="1.0" encoding="UTF-8"?>
<svg id="Layer_2" data-name="Layer 2" xmlns="http://www.w3.org/2000/svg" viewBox="0 0 101.93 125.75">
  <defs>
    <style>
      .cls-1 {
        fill: #8e0000;
      }
    </style>
  </defs>
  <g id="Layer_1-2" data-name="Layer 1">
    <g>
      <path class="cls-1" d="M68.98,104.13c-.1,0-.18.05-.24.15s-.09.23-.09.39c0,.14.03.26.09.34s.14.13.25.13.19-.04.26-.13v-.68s-.02-.06-.07-.12-.11-.08-.2-.08Z"/>
      <path class="cls-1" d="M80.67,104.13c-.08,0-.15.03-.21.1-.06.07-.08.17-.09.29h.54c0-.26-.08-.39-.25-.39Z"/>
      <path class="cls-1" d="M73.4,104.95c0,.13.06.19.18.19.09,0,.18-.05.26-.14v-.41c-.17.05-.28.1-.34.16-.06.05-.09.12-.09.2Z"/>
      <path class="cls-1" d="M70.75,104.95c0,.13.06.19.18.19.09,0,.18-.05.26-.14v-.41c-.17.05-.28.1-.34.16-.06.05-.09.12-.09.2Z"/>
      <path class="cls-1" d="M63.09,97.58c-.44,0-.81.17-1.12.51v2.96c0,.11.11.3.32.55.21.25.51.38.87.38.42,0,.75-.2,1.01-.61.26-.41.39-.96.39-1.67,0-.64-.13-1.15-.39-1.54-.26-.39-.62-.59-1.08-.59Z"/>
      <path class="cls-1" d="M0,0v125.75h101.93V0H0ZM55.66,102.13c-.36.13-.63.2-.83.2-.54,0-.86-.25-.95-.74h-.03c-.46.51-1,.76-1.64.76-.38,0-.69-.12-.94-.35-.25-.23-.37-.54-.37-.92,0-.43.12-.75.35-.98.23-.22.63-.43,1.2-.62.81-.27,1.28-.44,1.41-.51v-.5c0-.3-.08-.55-.24-.76-.16-.21-.4-.32-.72-.32s-.57.08-.73.24c0,.09.02.19.05.3.03.12.05.24.05.37s-.06.25-.18.34c-.12.09-.26.14-.44.14-.33,0-.49-.2-.49-.59,0-.31.19-.58.58-.82.38-.24.79-.36,1.23-.36.7,0,1.19.14,1.47.41s.41.7.41,1.26l-.03,2.54c0,.19.04.32.13.41.09.09.17.14.24.15.07.01.24.02.5.02v.33ZM59.91,98.28c-.09.12-.22.19-.38.19-.18,0-.32-.05-.43-.14-.11-.09-.16-.2-.16-.34,0-.1.02-.23.06-.39-.45.02-.83.27-1.12.75v2.95c0,.19.06.32.18.41.12.09.38.14.8.17v.34h-2.68v-.34l.25-.03c.33-.02.5-.19.5-.5v-3.13c0-.45-.27-.68-.8-.69v-.34l1.69-.1.07.07v.71h.03c.44-.56.92-.84,1.42-.84.22,0,.39.07.53.21.14.14.21.33.21.57,0,.2-.05.35-.14.48ZM64.93,101.6c-.48.52-1.04.78-1.68.78-.52,0-1.04-.16-1.58-.47l-.38.59-.31-.07c.03-.75.04-1.4.04-1.95v-5.03c0-.24-.06-.41-.19-.52s-.39-.18-.79-.21v-.34l1.86-.11.07.07v3.35h.04c.43-.45.91-.67,1.44-.67.63,0,1.15.25,1.57.75.42.5.63,1.14.63,1.93s-.24,1.4-.72,1.92ZM66.79,103.64c-.11,0-.17.02-.21.04-.03.02-.05.05-.05.1v1.21s.01.07.04.1c.03.02.1.04.21.05v.08h-.76v-.08c.11,0,.18-.02.21-.03.03-.01.04-.05.04-.1v-1.22c0-.05-.02-.09-.07-.11-.05-.02-.11-.04-.18-.04v-.08h.76v.08ZM68.25,105.24h-.57v-.08h.06c.08-.01.12-.05.12-.12v-.6c0-.08-.02-.14-.06-.19-.04-.05-.09-.07-.15-.07-.13,0-.24.06-.3.18v.67c0,.08.06.12.18.13v.08h-.57v-.08h.06c.08-.01.11-.05.11-.12v-.72c0-.1-.06-.16-.18-.16v-.08l.39-.02.02.02v.16h0c.09-.09.16-.14.21-.17.06-.02.12-.03.18-.03.22,0,.33.13.33.39v.61c0,.08.06.12.17.13v.08ZM67,100.63v-2.42c0-.42-.27-.64-.8-.66v-.34l1.7-.11.07.07v3.52c0,.34.08.61.24.81.16.2.36.3.61.3.54,0,.96-.25,1.28-.75v-2.88c0-.14-.04-.27-.13-.39-.09-.12-.18-.18-.28-.19-.09-.01-.28-.03-.55-.04v-.34l1.85-.11.08.07v4.03c0,.4.26.61.77.6v.34l-1.64.11-.08-.07v-.64h-.04c-.49.55-1.05.82-1.68.82-.92,0-1.38-.57-1.38-1.72ZM70.21,103.6s-.01.08-.04.12c-.03.03-.07.05-.11.05-.04,0-.07-.02-.1-.05-.03-.03-.04-.07-.04-.11s.01-.08.04-.11c.03-.03.06-.05.1-.05.04,0,.08.02.11.05.03.03.04.07.04.11ZM69.68,105.22l-.41.03-.02-.02v-.11h-.01c-.1.1-.21.15-.34.15-.14,0-.26-.06-.36-.18-.1-.12-.15-.27-.15-.45s.05-.32.16-.44.24-.18.39-.18c.11,0,.21.03.3.08v-.41s-.01-.09-.04-.13c-.03-.04-.1-.06-.23-.07v-.08l.48-.03.02.02v1.57s0,.06.03.09c.02.02.04.04.05.04s.06,0,.13.01v.08ZM70.36,105.24h-.56v-.08h.06c.08-.01.11-.05.11-.12v-.72c0-.1-.07-.15-.21-.16v-.08l.41-.02.02.02v.95s.01.08.04.1.07.03.13.04v.08ZM71.6,105.22c-.08.03-.15.04-.19.04-.12,0-.2-.06-.22-.17h0c-.1.12-.23.18-.38.18-.09,0-.16-.03-.22-.08-.06-.05-.08-.12-.08-.21,0-.1.03-.17.08-.22.05-.05.15-.1.28-.14.19-.06.29-.1.32-.12v-.12c0-.07-.02-.13-.06-.18s-.09-.07-.17-.07-.13.02-.17.06c0,.02,0,.04.01.07,0,.03.01.06.01.08s-.01.06-.04.08-.06.03-.1.03c-.08,0-.11-.04-.11-.13,0-.07.04-.13.13-.19s.18-.08.28-.08c.16,0,.27.03.34.1.06.06.09.16.09.29v.58s0,.07.02.09c.02.02.04.03.05.04.02,0,.05,0,.11,0v.08ZM73.01,105.24h-.57v-.08h.06c.08-.01.12-.05.12-.12v-.6c0-.08-.02-.14-.06-.19-.04-.05-.09-.07-.15-.07-.13,0-.24.06-.3.18v.67c0,.08.06.12.18.13v.08h-.57v-.08h.06c.08-.01.11-.05.11-.12v-.72c0-.1-.06-.16-.18-.16v-.08l.39-.02.02.02v.16h0c.09-.09.16-.14.21-.17.06-.02.12-.03.18-.03.22,0,.33.13.33.39v.61c0,.08.06.12.17.13v.08ZM72.15,97.66v-.48h.94v-1.58h.94v1.58h1.45v.48h-1.44v2.84c0,.47.05.79.16.96s.33.25.66.25c.29,0,.54-.03.74-.09v.38c-.49.22-.95.32-1.37.32-.78,0-1.16-.41-1.16-1.22v-3.45h-.92ZM74.26,105.22c-.08.03-.15.04-.19.04-.12,0-.2-.06-.22-.17h0c-.1.12-.23.18-.38.18-.09,0-.16-.03-.22-.08-.06-.05-.08-.12-.08-.21,0-.1.03-.17.08-.22.05-.05.15-.1.28-.14.19-.06.29-.1.32-.12v-.12c0-.07-.02-.13-.06-.18s-.09-.07-.17-.07-.13.02-.17.06c0,.02,0,.04.01.07,0,.03.01.06.01.08s-.01.06-.04.08-.06.03-.1.03c-.08,0-.11-.04-.11-.13,0-.07.04-.13.13-.19s.18-.08.28-.08c.16,0,.27.03.34.1.06.06.09.16.09.29v.58s0,.07.02.09c.02.02.04.03.05.04.02,0,.05,0,.11,0v.08ZM76.69,103.64c-.12,0-.19.04-.23.08-.03.04-.05.14-.05.29v.73c0,.17-.06.3-.18.39s-.26.14-.42.14c-.19,0-.34-.05-.46-.14-.11-.09-.17-.21-.17-.35v-.99c0-.09-.07-.15-.22-.16v-.08h.7v.08c-.09,0-.16.02-.18.04-.03.02-.04.06-.04.11v.93c0,.28.14.43.42.43.15,0,.26-.04.33-.12.08-.08.11-.18.11-.3v-.69c0-.17-.02-.27-.06-.31-.04-.04-.12-.07-.24-.08v-.08h.69v.08ZM78.08,105.24h-.57v-.08h.06c.08-.01.12-.05.12-.12v-.6c0-.08-.02-.14-.06-.19-.04-.05-.09-.07-.15-.07-.13,0-.24.06-.3.18v.67c0,.08.06.12.18.13v.08h-.57v-.08h.06c.08-.01.11-.05.11-.12v-.72c0-.1-.06-.16-.18-.16v-.08l.39-.02.02.02v.16h0c.09-.09.16-.14.21-.17.06-.02.12-.03.18-.03.22,0,.33.13.33.39v.61c0,.08.06.12.17.13v.08ZM76.7,100.63v-2.42c0-.42-.27-.64-.8-.66v-.34l1.7-.11.07.07v3.52c0,.34.08.61.24.81.16.2.36.3.61.3.54,0,.96-.25,1.28-.75v-2.88c0-.14-.04-.27-.13-.39-.09-.12-.18-.18-.28-.19-.09-.01-.28-.03-.55-.04v-.34l1.85-.11.08.07v4.03c0,.4.26.61.77.6v.34l-1.64.11-.08-.07v-.64h-.04c-.49.55-1.05.82-1.68.82-.92,0-1.38-.57-1.38-1.72ZM78.64,103.6s-.01.08-.04.12c-.03.03-.07.05-.11.05-.04,0-.07-.02-.1-.05-.03-.03-.04-.07-.04-.11s.01-.08.04-.11c.03-.03.06-.05.1-.05.04,0,.08.02.11.05.03.03.04.07.04.11ZM78.79,105.24h-.56v-.08h.06c.08-.01.11-.05.11-.12v-.72c0-.1-.07-.15-.21-.16v-.08l.41-.02.02.02v.95s.01.08.04.1.07.03.13.04v.08ZM80.08,104.14s-.08.03-.11.05-.05.04-.06.07c-.01.02-.06.13-.14.31l-.17.4c-.04.08-.07.17-.1.28h-.09c-.24-.61-.38-.94-.41-.99-.03-.06-.09-.09-.17-.1v-.08h.54v.08c-.09,0-.14.02-.14.05l.3.74.2-.48c.05-.13.08-.2.08-.23,0-.04-.05-.07-.16-.09v-.07h.45v.07ZM80.69,105.27c-.18,0-.31-.06-.41-.17s-.15-.27-.15-.45c0-.17.05-.31.15-.43s.23-.18.38-.18.27.04.35.13.12.21.12.37v.08h-.77c0,.17.03.29.1.38.07.09.16.14.29.14.07,0,.13-.02.18-.05s.1-.09.15-.18l.08.05c-.11.2-.27.31-.48.31ZM82.17,104.33s-.05.04-.09.04c-.04,0-.07-.01-.1-.03-.02-.02-.04-.05-.04-.08,0-.02,0-.05.01-.09-.1,0-.19.06-.26.17v.68s.01.07.04.09.09.03.18.04v.08h-.62v-.08h.06c.08-.01.11-.05.11-.12v-.72c0-.1-.06-.16-.18-.16v-.08l.39-.02.02.02v.16h0c.1-.13.21-.19.33-.19.05,0,.09.02.12.05.03.03.05.08.05.13,0,.04-.01.08-.03.11ZM82.17,100.47h.34c.1.4.3.75.6,1.05.3.29.63.44,1.02.44.69,0,1.03-.29,1.03-.86,0-.24-.08-.43-.25-.59-.17-.15-.52-.31-1.05-.47-1.04-.31-1.56-.82-1.56-1.55,0-.43.16-.78.48-1.06s.73-.42,1.23-.42c.42,0,.79.09,1.12.26l.12-.27h.37l.09,1.64h-.36c-.19-.82-.63-1.24-1.34-1.24-.27,0-.49.07-.66.21-.17.14-.25.31-.25.52,0,.26.08.46.24.59s.51.28,1.05.46c.61.2,1.02.42,1.25.67.22.25.33.56.33.92,0,.47-.18.86-.54,1.16s-.81.45-1.36.45c-.5,0-.95-.15-1.35-.45l-.1.32h-.38l-.05-1.76ZM83.77,103.6s-.01.08-.04.12c-.03.03-.07.05-.11.05-.04,0-.07-.02-.1-.05-.03-.03-.04-.07-.04-.11s.01-.08.04-.11c.03-.03.06-.05.1-.05.04,0,.08.02.11.05.03.03.04.07.04.11ZM83.05,105.17c-.08.07-.19.1-.31.1-.12,0-.22-.03-.31-.1l-.02.07h-.09v-.4s.07,0,.07,0c.02.09.07.17.14.24s.15.1.23.1c.16,0,.24-.07.24-.2,0-.05-.02-.1-.06-.13s-.12-.07-.24-.11c-.24-.07-.36-.19-.36-.36,0-.1.04-.18.11-.24.07-.07.17-.1.28-.1.1,0,.18.02.26.06l.03-.06h.08l.02.38h-.08c-.04-.19-.15-.28-.31-.28-.06,0-.11.02-.15.05-.04.03-.06.07-.06.12,0,.06.02.11.05.13s.12.06.24.11c.14.04.24.1.29.15.05.06.08.13.08.21,0,.11-.04.2-.12.27ZM83.91,105.24h-.56v-.08h.06c.08-.01.11-.05.11-.12v-.72c0-.1-.07-.15-.21-.16v-.08l.41-.02.02.02v.95s.01.08.04.1.07.03.13.04v.08ZM84.78,105.19c-.11.05-.22.07-.31.07-.18,0-.27-.09-.27-.28v-.79h-.21v-.11h.22v-.36h.22v.36h.33v.11h-.33v.65c0,.11.01.18.04.22.02.04.08.06.15.06.07,0,.12,0,.17-.02v.09ZM86.04,104.15s-.06.02-.09.04c-.03.02-.06.04-.07.06-.01.02-.05.1-.11.24l-.16.39c-.11.27-.19.46-.25.57-.05.11-.11.19-.17.24s-.12.08-.18.08c-.06,0-.1-.01-.14-.04-.04-.03-.06-.06-.06-.1,0-.04.01-.07.03-.1.02-.03.05-.04.08-.04.07,0,.13.05.18.15.03-.02.08-.07.13-.15.05-.08.1-.17.13-.25l-.4-.97c-.03-.06-.09-.1-.18-.11v-.08h.53v.08c-.09,0-.13.02-.13.05,0,0,0,0,0,.02v.04s.29.69.29.69l.24-.58s0-.02.01-.03c.02-.04.03-.08.03-.1,0-.04-.05-.07-.16-.09v-.07h.43v.07ZM85.44,74.73c-.26-.07-1.76-1.59-2.17-1.84-.78-.49-5.11-1.7-6.09-1.82-.77-.09-1.51.06-2.34-.09-.99-.18-1.72-.89-2.63-1.26-2.36-.97-5.81-1.01-8.46-1.75-3.74-1.04-9.55-4.39-10.38-8.5-.5-2.49,1.35-3.43-1.26-5.5-1.57-1.25-6.8-3.06-8.8-3.07-2.03,0-5.73.66-7.21,2.11-3.95,3.85-5.37,7.22-7.48,12.16-.57,1.34-1.35,2.2-1.48,3.75-.11,1.27.01,4.15.39,5.34.34,1.09,1.1.04,1.5-.14.75-.33,1.52-.45,2.31-.87.53-.28,1.08-.83,1.58-1.04,1.13-.47,2.65.39,3.75.89.54.24,1,.68,1.59.9.38.14.91.07,1.27.3.54.35,2.23,4.54,2.02,5-.14.31-.86-.08-1.11-.09-1.29-.04-2.36.37-3.51.44-1.74.1-1.74-1.17-2.55-2.35-1.1-1.6-2.35-3.12-4.54-2.44-.47.15-1.49.9-1.75,1.32-.08.14.02.2,0,.28,0,.02-.15.03-.17.12-.07.27-.08.98-.14,1.33-.42,2.48.26,6.97.78,9.56.32,1.55,2.06,3.7,2.8,5.17,1.76,3.46,2.88,8.01,4.24,11.7.08.23.62.77.23.89-.93.3-1.67-.72-2.49-.99-.16-1.18-.56-2.26-.89-3.38-1.25-4.21-2.74-8.34-5.01-12.02-.18-.29-1.32-2-1.32-2.13-.04-.63.49,0,.73-.61.48-1.21-1.01-5.38-.99-7.11.01-.98.57-2.36.58-3.31.02-2.09-1.05-4.86-1.02-6.82.01-.83,2.18-4.01,2.62-5.23.8-2.21.59-6.03.19-8.36-.06-.34-.36-.64-.26-1.05-1.65,1.57-3.76,2.17-6.03,1.85-1.22-.17-3.51-1.66-4.2-2.7-2.35-3.52-.64-9.9-1.06-14.11-.1-1.03-1.5-4.11-1.01-4.8.09-.13.7-.04.9-.09,1.33-.37,1.82-1.18,3.4-1.07,4.38.31,9.14,3.53,12.46,6.23,2.28,1.85,2.6,3.17,2.04,6.11-.23,1.22-1.77,5.1-2.37,6.21-.35.65-2.16,1.25-2.65,2.16-.53.98-.39,2.81.08,3.79.15.32.22.39.62.31.21-.04,2.2-2.97,2.54-3.39.48-.61,1.18-1.21,1.68-1.84.86-1.07.83-1.94,2.37-2.22,3.64-.67,7.1-.86,10.6-2.41,2.27-1,2.09-2.29,2.64-4.44.04-.18.48-1.21.43-1.26-.05-.05-1.1.19-1.47.1-.69-.16-2.26-1.49-2.57-2.15-.12-.25-.12-.62-.19-.77-.15-.34-1.15-2.33-1.11-2.5.1-.5,1.58-.11,1.86-.13.47-.03,2.87-.52,3.13-.8.46-.5-.13-.83-.22-1.25-.06-.31.27-2.37.39-2.72.52-.49.45-2,1.26-1.88,1.21.19,4.41,3.04,5.32,4,.21.22.59,1.03.87.85.38-.23.29-3.4.18-3.94-.04-.2-.73-1.19.22-.79.65.27.72,1.53,1.16.74.33-.6.29-3.85.45-4.84.29-1.74,1.34-3.67,2.81-4.65.66-.45,1.79-1.3,1.81.1,0,.19-.55,1.47-.03,1.43.11,0,1.23-1.34,1.54-1.59.42-.34,1.74-1.2,2.23-1.28.19-.03,1.38,0,1.49.08.29.24-.56,1.44-.62,1.81-.03.16,0,1.75.07,1.81.27.2,1.46-1.7,1.77-.78.34,1.05-.01,3.14-.6,4.09-.17.27-.58.45-.65.69-.08.31.05.62-.08,1-.37,1.06-4.57,2.89-5.68,3.86-.26.22-2.45,2.94-2.5,3.13-.03.1-.07.24-.03.34.15.32,3.7-.15,3.85.29.05.14-.47.77.52.4,1.78-.67,2.39-2.58,3.68-3.78,1.32-1.21,2.09-1.45,1.88.8-.03.31-.49,1.41-.36,1.5.26.19,1.57-.11,2.09-.05.36.04,3.24.95,3.33,1.13.51.95-2.49,2.08-2.32,2.64.04.12,1.28.66,1.52.85.47.38.83,1.12,1.19,1.61.2.28,1.1,1,.95,1.34-.12.29-4.9,2.81-5.57,2.99-.53.37-1.95-.84-2.3-.34-.43.6,1.91,3.17-.72,2.45-1.48-.41-3.34-1.98-4.22-3.25-.22-.32-.7-1.45-.89-1.53-.19-.08-2.96-.59-3.12-.56-1.3.31.53,2.92.88,3.43.32.45,1.54,1.62,1.42,2.06-.25.91-4.16.38-4.9.08-.86-.34-2.16-2.26-2.32-2.27-.17,0-2.34,1.78-2.81,2.02-1.05.52-1.67.38-2.66,1.2-.2.16-.25.48-.52.62-.94.47-.27-1.05-.9-1.04-.34,0-2.54.72-2.27,1.36l7.75,3.17c.35.05-.03-.29.16-.55.02-.03.51-.27.59-.31,1.83-.83,7.53-1.09,9.51-.72.46.09,1.25.73,1.73.95,3.01,1.4,6.06,2.15,9.11,3.32,4.8,1.86,4.63,2.83,7.42,6.67.65.89,1.98,2.12,2.41,3.01.95,1.97.65,3.63.74,5.7.03.73.88,3.42-.64,3Z"/>
      <path class="cls-1" d="M51.93,100.96c0,.55.26.82.79.82.41,0,.78-.2,1.12-.59l.03-1.78c-.75.22-1.26.45-1.53.68s-.41.52-.41.87Z"/>
    </g>
  </g>
</svg>