<?xml version="1.0" encoding="UTF-8"?>
<svg id="Layer_2" data-name="Layer 2" xmlns="http://www.w3.org/2000/svg" viewBox="0 0 70.76 84.82">
  <g id="Layer_1-2" data-name="Layer 1">
    <g id="Cog68P.tif">
      <path d="M53.97.09c.29.24-.56,1.44-.62,1.81-.03.16,0,1.75.07,1.81.27.2,1.46-1.7,1.77-.78.34,1.05-.01,3.14-.6,4.09-.17.27-.58.45-.65.69-.08.31.05.62-.08,1-.37,1.06-4.57,2.89-5.68,3.86-.26.22-2.45,2.94-2.5,3.13-.03.1-.07.24-.03.34.15.32,3.7-.15,3.85.29.05.14-.47.77.52.4,1.78-.67,2.39-2.58,3.68-3.78s2.09-1.45,1.88.8c-.03.31-.49,1.41-.36,1.5.26.19,1.57-.11,2.09-.05.36.04,3.24.95,3.33,1.13.51.95-2.49,2.08-2.32,2.64.04.12,1.28.66,1.52.85.47.38.83,1.12,1.19,1.61.2.28,1.1,1,.95,1.34-.12.29-4.9,2.81-5.57,2.99-.53.37-1.95-.84-2.3-.34-.43.6,1.91,3.17-.72,2.45-1.48-.41-3.34-1.98-4.22-3.25-.22-.32-.7-1.45-.89-1.53s-2.96-.59-3.12-.56c-1.3.31.53,2.92.88,3.43.32.45,1.54,1.62,1.42,2.06-.25.91-4.16.38-4.9.08-.86-.34-2.16-2.26-2.32-2.27-.17,0-2.34,1.78-2.81,2.02-1.05.52-1.67.38-2.66,1.2-.2.17-.25.48-.52.62-.94.47-.27-1.05-.9-1.04-.34,0-2.54.72-2.27,1.36l7.75,3.17c.35.05-.03-.29.16-.55.02-.03.51-.27.59-.31,1.83-.83,7.53-1.09,9.51-.72.46.09,1.25.73,1.73.95,3.01,1.4,6.06,2.15,9.11,3.32,4.8,1.86,4.63,2.83,7.42,6.67.65.89,1.98,2.12,2.41,3.01.95,1.97.65,3.63.74,5.7.03.73.88,3.42-.64,3-.26-.07-1.76-1.59-2.17-1.84-.78-.49-5.11-1.7-6.09-1.82-.77-.09-1.51.06-2.34-.09-.99-.18-1.72-.89-2.63-1.26-2.36-.97-5.81-1.01-8.46-1.75-3.74-1.04-9.55-4.39-10.38-8.5-.5-2.49,1.35-3.43-1.26-5.5-1.57-1.25-6.8-3.06-8.8-3.07s-5.73.66-7.21,2.11c-3.95,3.85-5.37,7.22-7.48,12.16-.57,1.34-1.35,2.2-1.48,3.75-.11,1.27.01,4.15.39,5.34.34,1.09,1.1.04,1.5-.14.75-.33,1.52-.45,2.31-.87.53-.28,1.08-.83,1.58-1.04,1.13-.47,2.65.39,3.75.89.54.24,1,.68,1.59.9.38.14.91.07,1.27.3.54.35,2.23,4.54,2.02,5-.14.31-.86-.08-1.11-.09-1.29-.04-2.36.37-3.51.44-1.74.1-1.74-1.17-2.55-2.35-1.1-1.6-2.35-3.12-4.54-2.44-.47.15-1.49.9-1.75,1.32-.08.14.02.2,0,.28,0,.02-.15.03-.17.12-.07.27-.08.98-.14,1.33-.42,2.48.26,6.97.78,9.56.32,1.55,2.06,3.7,2.8,5.17,1.76,3.46,2.88,8.01,4.24,11.7.08.23.62.77.23.89-.94.3-1.67-.72-2.49-.99-.16-1.18-.56-2.26-.89-3.38-1.25-4.21-2.74-8.34-5.01-12.02-.18-.29-1.32-2-1.32-2.13-.04-.63.49,0,.73-.61.48-1.21-1.01-5.38-.99-7.11.01-.98.57-2.36.58-3.31.02-2.09-1.05-4.86-1.02-6.82.01-.83,2.18-4.01,2.62-5.23.8-2.21.59-6.03.19-8.36-.06-.34-.36-.64-.26-1.05-1.65,1.57-3.76,2.17-6.03,1.85-1.22-.17-3.51-1.66-4.2-2.7-2.35-3.52-.64-9.9-1.06-14.11-.1-1.03-1.5-4.11-1.01-4.8.09-.13.7-.04.9-.09,1.33-.37,1.82-1.18,3.4-1.07,4.38.31,9.14,3.53,12.46,6.23,2.28,1.85,2.6,3.17,2.04,6.11-.23,1.22-1.77,5.1-2.37,6.21-.35.65-2.16,1.25-2.65,2.16-.53.98-.39,2.81.08,3.79.15.32.22.39.62.31.21-.04,2.2-2.97,2.54-3.39.48-.61,1.18-1.21,1.68-1.84.86-1.07.83-1.94,2.37-2.22,3.64-.67,7.1-.86,10.6-2.41,2.27-1,2.09-2.29,2.64-4.44.04-.18.48-1.21.43-1.26-.05-.05-1.1.19-1.47.1-.69-.16-2.26-1.49-2.57-2.15-.12-.25-.12-.62-.19-.77-.15-.34-1.15-2.33-1.11-2.5.1-.5,1.58-.11,1.86-.13.47-.03,2.87-.52,3.13-.8.46-.5-.13-.83-.22-1.25-.06-.31.27-2.37.39-2.72.52-.49.45-2,1.26-1.88,1.21.19,4.41,3.04,5.32,4,.21.22.59,1.03.87.85.38-.23.29-3.4.18-3.94-.04-.2-.73-1.19.22-.79.65.27.72,1.53,1.16.74.33-.6.29-3.85.45-4.84.29-1.74,1.34-3.67,2.81-4.65.66-.45,1.79-1.3,1.81.1,0,.19-.55,1.47-.03,1.43.11,0,1.23-1.34,1.54-1.59.42-.34,1.74-1.2,2.23-1.28.19-.03,1.38,0,1.49.08Z"/>
    </g>
  </g>
</svg>